<svg class="svg-icon" style="width: 1em; height: 1em;vertical-align: middle;fill: currentColor;overflow: hidden;" viewBox="0 0 1024 1024" version="1.1" xmlns="http://www.w3.org/2000/svg"><path d="M933.344 460.8c0-235.52-191.136-426.656-426.656-426.656s-426.656 191.136-426.656 426.656l0 174.08 1.696 0c0 5.12 0 10.24 0 13.664 0 112.64 90.464 204.8 203.104 204.8l0 0 0-409.6-1.696 0c-71.68 0-133.12 35.84-168.96 92.16l0-75.104c0-216.736 175.776-392.544 392.544-392.544s392.544 175.776 392.544 392.544l0 75.104c-35.84-54.624-98.976-92.16-168.96-92.16l-1.696 0 0 409.6 1.696 0c17.056 0 32.416-1.696 49.504-6.816-51.2 49.504-114.336 83.616-186.016 100.704l0-59.744-172.384 0 0 102.4 170.656 0 0-6.816c109.216-22.176 203.104-85.344 264.544-174.08 46.08-37.536 76.8-95.584 76.8-160.416 0-5.12 0-10.24 0-13.664l0 0 0-174.08zM250.656 481.28l0 334.496c-76.8-15.36-136.544-85.344-136.544-167.264s59.744-151.904 136.544-167.264zM557.856 955.744l-102.4 0 0-34.144 102.4 0 0 34.144zM762.656 815.776l0-334.496c78.496 15.36 136.544 85.344 136.544 167.264s-58.016 151.904-136.544 167.264z"  /></svg>